#!OML:ASF F:\VICON\USERDATA\INSTALL\rory3\rory3.ASF
:FULLY-SPECIFIED
:DEGREES
450
root 4.89024 16.288 2.20716 5.42044 -9.594 -7.79318
lowerback 20.9738 -1.32747 3.9774
upperback 4.84612 -0.765924 2.00824
thorax -6.4616 -0.435479 0.101007
lowerneck -15.3863 -0.837328 -1.39474
upperneck 36.6873 -0.429664 -1.42439
head 15.4751 -0.635237 -0.448966
rclavicle 3.35946e-014 -2.06736e-014
rhumerus -42.8959 2.59632 -15.2458
rradius 30.961
rwrist 8.30418
rhand -21.3646 -48.5806
rfingers 7.12502
rthumb 5.02235 -78.501
lclavicle 3.35946e-014 -2.06736e-014
lhumerus -34.8813 -1.32796 16.0195
lradius 25.3054
lwrist 10.1218
lhand -25.8069 -32.4064
lfingers 7.12502
lthumb 0.732211 -2.4279
rfemur -107.083 -0.0231805 27.9001
rtibia 104.8
rfoot 50.7664 6.13735
rtoes -3.98218
lfemur -32.6592 4.7002 -22.2987
ltibia 54.802
lfoot -24.8875 5.23076
ltoes 11.5835
451
root 4.8887 16.2914 2.20735 5.35642 -9.79814 -7.83177
lowerback 21.0909 -1.27071 3.93465
upperback 4.84256 -0.693998 2.02331
thorax -6.5243 -0.401193 0.124966
lowerneck -15.3109 -0.816716 -1.44003
upperneck 36.6493 -0.400304 -1.38874
head 15.4388 -0.624194 -0.419754
rclavicle -3.47873e-014 -2.74323e-014
rhumerus -42.6807 2.38575 -14.8005
rradius 30.6089
rwrist 8.53417
rhand -21.5155 -48.4667
rfingers 7.12502
rthumb 4.87661 -78.3906
lclavicle -3.47873e-014 -2.74323e-014
lhumerus -34.9226 -1.14286 15.456
lradius 25.1071
lwrist 9.64902
lhand -25.9445 -32.5112
lfingers 7.12502
lthumb 0.599336 -2.53228
rfemur -106.857 0.199936 27.9261
rtibia 104.554
rfoot 50.7264 5.88317
rtoes -4.0541
lfemur -32.5205 4.72281 -22.2518
ltibia 54.7659
lfoot -24.9785 5.44123
ltoes 11.2878
452
root 4.88757 16.2935 2.20668 5.35774 -9.90018 -7.94362
lowerback 21.0881 -1.25656 4.03766
upperback 4.89336 -0.656642 2.02293
thorax -6.46726 -0.383852 0.055451
lowerneck -15.3802 -0.816404 -1.4759
upperneck 36.5704 -0.433206 -1.26524
head 15.4168 -0.625145 -0.366197
rclavicle 9.93923e-016 1.31198e-014
rhumerus -42.5626 2.33559 -14.6066
rradius 30.3617
rwrist 8.39498
rhand -21.6689 -48.3094
rfingers 7.12502
rthumb 4.72849 -78.2366
lclavicle 9.93923e-016 1.31198e-014
lhumerus -34.8286 -0.786285 14.8034
lradius 24.5622
lwrist 9.03809
lhand -25.4168 -32.601
lfingers 7.12502
lthumb 1.10903 -2.62412
rfemur -106.738 0.334143 28.0485
rtibia 104.399
rfoot 50.7477 5.4327
rtoes -3.26091
lfemur -32.4727 4.68584 -22.1238
ltibia 54.7311
lfoot -24.9961 5.65052
ltoes 12.1392
453
root 4.88734 16.2937 2.20809 5.38301 -9.91578 -7.96241
lowerback 21.0192 -1.28393 4.11529
upperback 4.92572 -0.684393 1.98159
thorax -6.39784 -0.397373 -0.0276828
lowerneck -15.4954 -0.802526 -1.3864
upperneck 36.5696 -0.428125 -1.29441
head 15.4431 -0.614931 -0.394395
rclavicle 2.32578e-014 -1.90833e-014
rhumerus -42.397 2.19724 -14.3925
rradius 30.0655
rwrist 8.51561
rhand -22.0395 -48.1095
rfingers 7.12502
rthumb 4.3706 -78.0444
lclavicle 2.32578e-014 -1.90833e-014
lhumerus -34.9003 -0.552207 14.1485
lradius 24.2589
lwrist 8.88391
lhand -24.1666 -30.5661
lfingers 7.12502
lthumb 2.31649 -0.598947
rfemur -106.739 0.345423 28.0734
rtibia 104.351
rfoot 50.7204 5.33529
rtoes -2.42844
lfemur -32.4545 4.56105 -22.1024
ltibia 54.6843
lfoot -24.9324 5.78999
ltoes 14.3395
454
root 4.88892 16.2956 2.20935 5.40593 -9.95808 -7.87962
lowerback 20.9879 -1.3027 4.09818
upperback 4.89787 -0.716935 1.92866
thorax -6.41325 -0.413365 -0.0667627
lowerneck -15.5197 -0.771712 -1.3171
upperneck 36.6298 -0.370095 -1.38613
head 15.478 -0.594764 -0.436608
rclavicle 2.78299e-015 -4.33351e-014
rhumerus -42.1488 1.81064 -13.9565
rradius 29.6679
rwrist 9.07265
rhand -22.1215 -47.9883
rfingers 7.12502
rthumb 4.29141 -77.9248
lclavicle 2.78299e-015 -4.33351e-014
lhumerus -35.0907 -0.695811 13.6777
lradius 24.2395
lwrist 9.06988
lhand -23.4969 -28.6534
lfingers 7.12502
lthumb 2.96321 1.30576
rfemur -106.763 0.337256 27.9861
rtibia 104.302
rfoot 50.7608 5.20621
rtoes -1.44127
lfemur -32.4316 4.37736 -22.2016
ltibia 54.6128
lfoot -24.8604 5.96761
ltoes 15.5701
455
root 4.89174 16.3005 2.20926 5.45722 -9.982 -7.82193
lowerback 21.0089 -1.30367 4.116
upperback 4.83431 -0.712553 1.89726
thorax -6.49385 -0.413 -0.110614
lowerneck -15.5555 -0.78765 -1.29145
upperneck 36.6752 -0.377127 -1.44977
head 15.5088 -0.603395 -0.470283
rclavicle -4.57205e-015 -2.74323e-014
rhumerus -42.0531 1.77654 -13.6465
rradius 29.4348
rwrist 9.15959
rhand -21.8529 -48.167
rfingers 7.12502
rthumb 4.55082 -78.0981
lclavicle -4.57205e-015 -2.74323e-014
lhumerus -35.0177 -0.674951 13.1799
lradius 23.8313
lwrist 8.59876
lhand -23.4919 -28.5042
lfingers 7.12502
lthumb 2.96809 1.45493
rfemur -106.76 0.320931 27.9231
rtibia 104.187
rfoot 50.8237 4.87275
rtoes -0.66381
lfemur -32.4475 4.15663 -22.2672
ltibia 54.5259
lfoot -24.7549 6.08778
ltoes 16.0367
456
root 4.89388 16.3034 2.21257 5.47633 -10.056 -7.69999
lowerback 21.0509 -1.28679 4.07568
upperback 4.75564 -0.698326 1.83006
thorax -6.60155 -0.407677 -0.162172
lowerneck -15.5399 -0.833149 -1.3728
upperneck 36.7567 -0.456196 -1.35278
head 15.5458 -0.635119 -0.429355
rclavicle 1.98785e-015 -7.95139e-016
rhumerus -42.0436 1.92798 -13.434
rradius 29.3144
rwrist 9.18277
rhand -21.6834 -48.6333
rfingers 7.12502
rthumb 4.71448 -78.5609
lclavicle 1.98785e-015 -7.95139e-016
lhumerus -34.8985 -0.633654 12.6239
lradius 23.3159
lwrist 7.98404
lhand -23.4391 -28.58
lfingers 7.12502
lthumb 3.01907 1.37841
rfemur -106.752 0.329792 27.8066
rtibia 104.064
rfoot 50.7871 4.88561
rtoes -0.938649
lfemur -32.4127 3.98138 -22.4023
ltibia 54.4213
lfoot -24.6691 6.22572
ltoes 16.3021
457
root 4.89311 16.3053 2.21438 5.45932 -10.1472 -7.58168
lowerback 21.0734 -1.29733 4.00211
upperback 4.68867 -0.729454 1.75417
thorax -6.6877 -0.423437 -0.192823
lowerneck -15.4229 -0.838395 -1.54687
upperneck 36.8599 -0.503984 -1.11197
head 15.5704 -0.647672 -0.304875
rclavicle 3.67752e-014 -2.46493e-014
rhumerus -41.9658 1.9776 -13.231
rradius 29.1967
rwrist 9.51039
rhand -21.7835 -49.0231
rfingers 7.12502
rthumb 4.61779 -78.9528
lclavicle 3.67752e-014 -2.46493e-014
lhumerus -35.0364 -0.792907 12.0783
lradius 23.1926
lwrist 7.7609
lhand -23.3071 -28.4752
lfingers 7.12502
lthumb 3.14654 1.48131
rfemur -106.719 0.369927 27.7242
rtibia 103.928
rfoot 50.7354 5.16082
rtoes -1.73081
lfemur -32.3363 3.86153 -22.5236
ltibia 54.3053
lfoot -24.5836 6.37664
ltoes 16.249
458
root 4.89101 16.3098 2.21515 5.41693 -10.1687 -7.52778
lowerback 21.0218 -1.32846 3.97378
upperback 4.69469 -0.781702 1.72158
thorax -6.65591 -0.447888 -0.199152
lowerneck -15.2842 -0.819457 -1.66488
upperneck 36.8302 -0.493319 -0.977916
head 15.5236 -0.641484 -0.22396
rclavicle 2.78299e-014 4.77083e-015
rhumerus -41.8114 2.09772 -13.0905
rradius 29.1373
rwrist 9.40186
rhand -21.8459 -49.1591
rfingers 7.12502
rthumb 4.55757 -79.0901
lclavicle 2.78299e-014 4.77083e-015
lhumerus -35.2538 -0.729221 11.5107
lradius 23.0883
lwrist 7.51892
lhand -23.4127 -28.6845
lfingers 7.12502
lthumb 3.04452 1.27347
rfemur -106.591 0.363712 27.7267
rtibia 103.744
rfoot 50.6325 5.20862
rtoes -2.05951
lfemur -32.2155 3.67292 -22.5618
ltibia 54.1677
lfoot -24.4936 6.53038
ltoes 16.2738
